<?xml version="1.0" standalone="no"?>
<!DOCTYPE svg PUBLIC "-//W3C//DTD SVG 20010904//EN"
 "http://www.w3.org/TR/2001/REC-SVG-20010904/DTD/svg10.dtd">
<svg version="1.0" xmlns="http://www.w3.org/2000/svg"
 width="500.000000pt" height="500.000000pt" viewBox="0 0 500.000000 500.000000"
 preserveAspectRatio="xMidYMid meet">

<g transform="translate(0.000000,500.000000) scale(0.100000,-0.100000)"
fill="#000000" stroke="none">
<path d="M1338 3883 l-3 -898 -23 -56 c-36 -91 -92 -130 -203 -144 -39 -5 -75
-2 -120 9 -115 30 -166 105 -176 259 l-6 87 -383 0 c-211 0 -385 -3 -387 -8
-10 -15 14 -259 33 -336 11 -45 41 -124 66 -176 86 -176 247 -306 474 -383
150 -51 235 -62 490 -62 317 0 445 26 655 133 71 36 108 64 176 132 71 71 93
101 131 180 26 52 57 133 70 180 l23 85 3 948 3 947 -410 0 -410 0 -3 -897z"/>
<path d="M2380 3135 l0 -1095 323 2 322 3 3 345 c4 467 -12 793 -54 1100 -4
29 -3 41 3 35 5 -5 96 -325 201 -710 106 -385 197 -717 203 -737 l10 -38 274
0 274 0 9 33 c266 979 399 1457 405 1457 4 0 5 -15 2 -32 -30 -167 -37 -331
-42 -880 l-5 -578 346 0 346 0 0 1095 0 1095 -477 0 -478 0 -134 -518 c-186
-716 -193 -742 -200 -742 -4 0 -81 283 -172 630 l-164 630 -497 0 -498 0 0
-1095z"/>
<path d="M750 1575 l0 -125 54 0 54 0 -29 -53 c-78 -145 -78 -360 1 -506 24
-43 30 -67 30 -113 l0 -58 55 0 c41 0 70 -7 113 -29 99 -50 166 -65 287 -65
94 0 122 4 189 27 225 79 346 248 347 488 0 101 -13 163 -52 243 -16 33 -29
61 -29 63 0 1 445 3 989 3 l989 0 -29 -59 c-59 -118 -73 -254 -39 -387 25 -98
68 -171 143 -240 95 -88 196 -130 342 -140 229 -16 433 92 525 280 76 152 76
322 1 482 l-30 64 50 0 49 0 0 125 0 125 -2005 0 -2005 0 0 -125z m653 -189
c98 -36 158 -126 158 -240 0 -71 -24 -142 -64 -185 -61 -66 -205 -92 -293 -52
-125 57 -180 217 -120 347 26 56 84 111 137 130 45 17 135 16 182 0z m2927
-17 c149 -82 171 -306 43 -419 -51 -44 -94 -60 -168 -60 -73 0 -121 17 -166
57 -52 47 -80 103 -86 173 -10 111 44 210 142 257 66 32 170 28 235 -8z"/>
<path d="M0 785 l0 -75 55 0 55 0 0 75 0 75 -55 0 -55 0 0 -75z"/>
<path d="M262 788 l3 -73 73 -3 72 -3 0 76 0 75 -75 0 -76 0 3 -72z"/>
<path d="M560 790 l0 -70 75 0 75 0 0 70 0 70 -75 0 -75 0 0 -70z"/>
</g>
</svg>
